<svg width="30" height="28" viewBox="0 0 30 28" fill="none" xmlns="http://www.w3.org/2000/svg">
<path d="M13.0979 3.8541C13.8816 1.44208 14.2735 0.236068 15 0.236068C15.7265 0.236068 16.1184 1.44208 16.9021 3.8541L18.3677 8.36475C18.5843 9.03141 18.6926 9.36475 18.9555 9.55573C19.2184 9.74671 19.5688 9.74671 20.2698 9.74671L25.0126 9.74671C27.5487 9.74671 28.8168 9.74671 29.0413 10.4377C29.2658 11.1287 28.24 11.874 26.1882 13.3647L22.3512 16.1525C21.7841 16.5645 21.5005 16.7705 21.4001 17.0795C21.2997 17.3885 21.408 17.7219 21.6246 18.3885L23.0902 22.8992C23.874 25.3112 24.2658 26.5172 23.678 26.9443C23.0902 27.3713 22.0643 26.626 20.0126 25.1353L16.1756 22.3475C15.6085 21.9355 15.3249 21.7295 15 21.7295C14.6751 21.7295 14.3915 21.9355 13.8244 22.3475L9.98744 25.1353C7.93566 26.626 6.90976 27.3713 6.32198 26.9443C5.73419 26.5172 6.12605 25.3112 6.90976 22.8992L8.37536 18.3885C8.59197 17.7219 8.70028 17.3885 8.59987 17.0795C8.49947 16.7705 8.21592 16.5645 7.64882 16.1525L3.81183 13.3647C1.76005 11.874 0.734152 11.1287 0.958666 10.4377C1.18318 9.74671 2.45125 9.74671 4.9874 9.74671L9.73018 9.74671C10.4312 9.74671 10.7816 9.74671 11.0445 9.55573C11.3074 9.36475 11.4157 9.03141 11.6323 8.36475L13.0979 3.8541Z" fill="#FFCC47"/>
</svg>
